<svg width="232" height="34" viewBox="0 0 232 34" fill="none" xmlns="http://www.w3.org/2000/svg">
<path d="M25.272 13.004V10.196C25.272 7.532 23.112 5.372 20.448 5.372H5.76C3.132 5.372 0.972 7.532 0.972 10.196V21.176C0.972 23.804 3.132 25.964 5.76 25.964H20.448C23.112 25.964 25.272 23.804 25.272 21.176V17.468H20.088V20.78H6.156V10.556H20.088V13.004H25.272ZM46.5339 5.372H31.8459C29.2179 5.372 27.0579 7.532 27.0579 10.196V21.176C27.0579 23.804 29.2179 25.964 31.8459 25.964H46.5339C49.1979 25.964 51.3579 23.804 51.3579 21.176V10.196C51.3579 7.532 49.1979 5.372 46.5339 5.372ZM46.1739 20.78H32.2419V10.556H46.1739V20.78ZM72.5068 0.835998V6.308C71.2468 5.732 69.8788 5.372 68.4028 5.372H57.8548C55.3708 5.372 53.3908 7.388 53.3908 9.872V21.5C53.3908 23.948 55.3708 25.964 57.8548 25.964H73.1908H73.2268H77.6908V0.835998H72.5068ZM72.5068 20.78H58.5748V10.556H68.4028C70.6708 10.556 72.5068 12.392 72.5068 14.624V20.78ZM100.129 18.188C102.793 18.188 104.953 16.028 104.953 13.4V10.196C104.953 7.532 102.793 5.372 100.129 5.372H84.7209C82.0929 5.372 79.9329 7.532 79.9329 10.196V21.176C79.9329 23.804 82.0929 25.964 84.7209 25.964H99.9129C102.577 25.964 104.737 23.804 104.737 21.176V19.376H99.5529V20.78H85.1169V18.188H100.129ZM85.1169 10.556H99.7689V13.004H85.1169V10.556ZM139.697 5.372H132.461C130.481 5.372 128.681 5.984 127.169 7.028C126.305 6.02 125.009 5.372 123.569 5.372H116.297C114.821 5.372 113.453 5.732 112.229 6.308V5.408H107.045V26.036H112.229V14.624C112.229 12.392 114.029 10.556 116.297 10.556H123.173V26.036H128.357V14.624C128.357 12.392 130.193 10.556 132.461 10.556H139.337V26.036H144.521V10.196C144.521 7.532 142.361 5.372 139.697 5.372ZM166.423 5.372H151.987C149.323 5.372 147.163 7.532 147.163 10.196V12.716H152.347V10.556H166.063V14.624H151.015C148.351 14.624 146.227 16.784 146.227 19.448V21.176C146.227 23.804 148.351 25.964 151.015 25.964H166.423C169.087 25.964 171.247 23.804 171.247 21.176V10.196C171.247 7.532 169.087 5.372 166.423 5.372ZM166.063 20.78H151.411V19.808H166.063V20.78ZM193.109 5.372H177.773C175.289 5.372 173.309 7.388 173.309 9.872V21.5C173.309 23.948 175.289 25.964 177.773 25.964H188.321C189.797 25.964 191.165 25.64 192.425 25.028V28.7H179.249V27.296H174.065V29.096C174.065 31.724 176.225 33.884 178.889 33.884H192.785C195.449 33.884 197.609 31.724 197.609 29.096V9.872C197.609 7.388 195.593 5.372 193.109 5.372ZM192.425 10.808V16.712C192.389 18.98 190.589 20.78 188.321 20.78H178.493V10.556H192.425V10.808ZM205.217 26V5.408H200.033V26H205.217ZM205.217 4.292V0.835998H200.033V4.292H205.217ZM231.745 13.004V10.196C231.745 7.532 229.585 5.372 226.921 5.372H212.233C209.605 5.372 207.445 7.532 207.445 10.196V21.176C207.445 23.804 209.605 25.964 212.233 25.964H226.921C229.585 25.964 231.745 23.804 231.745 21.176V17.468H226.561V20.78H212.629V10.556H226.561V13.004H231.745Z" fill="white"/>
</svg>
