<?xml version="1.0" standalone="no"?>
<!DOCTYPE svg PUBLIC "-//W3C//DTD SVG 20010904//EN"
 "http://www.w3.org/TR/2001/REC-SVG-20010904/DTD/svg10.dtd">
<svg version="1.0" xmlns="http://www.w3.org/2000/svg"
 width="1888.000000pt" height="1888.000000pt" viewBox="0 0 1888.000000 1888.000000"
 preserveAspectRatio="xMidYMid meet">
<metadata>
Created by potrace 1.14, written by Peter Selinger 2001-2017
</metadata>
<g transform="translate(0.000000,1888.000000) scale(0.100000,-0.100000)"
fill="#000000" stroke="none">
<path d="M1547 13584 c-1 -1 -40 -5 -86 -8 -46 -4 -87 -8 -90 -10 -3 -2 -22
-7 -41 -10 -19 -3 -45 -8 -58 -10 -39 -8 -197 -58 -207 -65 -5 -4 -32 -16 -60
-26 -27 -10 -57 -24 -66 -31 -8 -8 -21 -14 -28 -14 -7 0 -24 -9 -38 -20 -14
-11 -31 -20 -39 -20 -7 0 -14 -3 -16 -7 -1 -5 -36 -30 -76 -57 -40 -27 -88
-63 -106 -80 -130 -119 -183 -176 -248 -266 -26 -36 -51 -70 -55 -76 -39 -51
-146 -268 -158 -319 -1 -5 -10 -32 -20 -60 -9 -27 -19 -61 -21 -75 -3 -14 -9
-41 -14 -60 -13 -49 -19 -85 -27 -160 -9 -84 -9 -5402 0 -5495 4 -38 11 -87
16 -107 5 -20 7 -39 4 -42 -2 -2 0 -12 5 -23 6 -10 20 -56 33 -103 12 -47 26
-92 30 -100 4 -8 31 -64 60 -125 94 -198 202 -339 379 -496 42 -37 181 -139
190 -139 5 0 15 -6 22 -12 13 -13 201 -108 222 -113 6 -1 25 -8 41 -14 17 -7
35 -14 40 -15 6 -2 28 -8 50 -14 22 -6 43 -12 47 -12 4 -1 22 -6 40 -11 18 -6
47 -12 63 -14 17 -2 44 -6 60 -10 17 -4 48 -8 70 -10 52 -6 5353 -6 5425 -1
30 2 69 7 85 10 17 3 55 10 85 16 73 14 208 55 267 82 27 12 50 22 53 23 8 2
113 55 135 68 61 36 133 84 155 104 14 13 28 23 33 23 4 0 53 46 110 103 108
107 171 177 162 177 -3 0 5 12 19 26 13 15 30 38 38 53 7 14 16 28 20 31 11 8
118 220 111 220 -3 0 -1 6 5 13 11 13 69 184 77 225 2 14 9 48 14 76 6 28 13
68 16 90 3 21 8 42 11 47 3 5 1 9 -5 9 -6 0 -7 11 -2 28 4 15 7 486 7 1047
l-1 1020 -826 3 -827 2 -3 -22 c-2 -13 -4 -426 -3 -918 0 -492 -3 -897 -7
-900 -5 -4 -4743 -5 -4850 -1 l-26 1 1 2452 1 2452 2430 1 c1337 0 2435 -1
2441 -2 7 -3 10 -237 10 -754 -1 -413 1 -754 4 -758 8 -13 1649 -9 1653 3 6
21 0 1732 -7 1806 -13 134 -78 375 -124 458 -7 12 -9 22 -5 22 4 0 4 4 -2 8
-5 4 -25 36 -44 72 -32 62 -99 169 -111 180 -3 3 -20 25 -38 50 -32 46 -234
250 -246 250 -9 0 -90 62 -94 73 -2 4 -10 7 -17 7 -7 0 -15 3 -17 8 -6 14
-223 129 -258 137 -8 2 -28 8 -45 15 -16 6 -30 11 -30 10 0 -1 -16 6 -35 14
-19 8 -38 15 -42 15 -5 1 -9 1 -10 2 -6 1 -34 7 -60 12 -15 3 -32 8 -36 11 -5
3 -33 8 -63 11 -30 3 -67 8 -84 11 -25 5 -5363 12 -5368 8z"/>
<path d="M9538 13492 c-16 -2 -28 -9 -29 -15 -1 -7 -2 -23 -4 -37 -2 -29 -16
-189 -20 -240 -2 -19 -7 -73 -11 -120 -4 -47 -8 -102 -8 -122 -1 -21 -3 -38
-6 -38 -3 0 -6 -19 -6 -43 -2 -58 -11 -170 -29 -357 -3 -25 -7 -79 -11 -120
-6 -82 -9 -121 -18 -220 -4 -36 -8 -87 -11 -115 -5 -60 -13 -158 -21 -240 -3
-33 -7 -80 -9 -105 -12 -163 -16 -218 -20 -240 -2 -14 -7 -63 -11 -110 -3 -47
-8 -98 -10 -115 -5 -48 -15 -175 -19 -235 -2 -30 -7 -84 -10 -120 -9 -89 -12
-122 -20 -215 -9 -107 -13 -147 -20 -230 -4 -38 -8 -90 -10 -115 -4 -66 -16
-190 -21 -225 -2 -16 -6 -68 -9 -115 -3 -47 -7 -101 -9 -120 -3 -19 -7 -74
-11 -122 -3 -48 -7 -95 -9 -105 -2 -10 -7 -58 -10 -108 -4 -49 -9 -106 -11
-125 -3 -19 -7 -69 -11 -110 -7 -99 -11 -151 -19 -235 -4 -38 -9 -90 -11 -115
-2 -25 -6 -74 -9 -110 -3 -36 -7 -90 -10 -120 -2 -30 -7 -80 -10 -110 -3 -30
-8 -82 -10 -115 -2 -33 -6 -80 -9 -105 -12 -116 -17 -170 -21 -230 -3 -36 -7
-94 -11 -130 -3 -36 -7 -82 -7 -102 -1 -21 -4 -38 -7 -38 -3 0 -5 -26 -6 -58
-1 -31 -4 -91 -8 -132 -9 -87 -14 -153 -21 -230 -19 -245 -17 -230 -28 -247
-5 -8 -3 -13 3 -13 6 0 9 -4 6 -8 -2 -4 -7 -41 -10 -82 -7 -77 -12 -129 -21
-215 -3 -27 -8 -84 -10 -125 -3 -41 -7 -93 -9 -115 -2 -22 -7 -74 -11 -115 -3
-41 -8 -97 -11 -125 -3 -27 -7 -74 -9 -103 -2 -28 -7 -57 -10 -62 -3 -6 -1
-10 5 -10 6 0 8 -5 4 -12 -7 -11 -10 -35 -18 -133 -10 -131 -17 -204 -21 -245
-3 -25 -7 -76 -10 -115 -4 -38 -8 -95 -11 -125 -3 -30 -7 -85 -10 -121 l-5
-66 43 -2 c109 -5 228 -6 228 -1 0 3 28 4 62 3 35 -1 63 -2 63 -3 0 -1 28 -2
63 -3 34 -1 62 2 62 6 0 5 4 6 9 2 5 -3 63 -5 128 -5 65 0 141 0 168 -1 28 -1
57 -1 65 0 8 1 33 1 55 0 22 -1 46 -1 53 0 6 1 18 1 25 2 16 1 124 0 162 -2
17 0 37 -1 45 0 25 1 119 0 223 -2 53 -1 97 0 97 3 0 3 25 3 55 2 52 -4 55 -3
54 20 0 12 2 48 6 78 3 30 8 80 10 110 2 30 5 55 5 55 1 0 3 25 5 55 2 30 4
55 5 55 1 0 3 25 5 55 3 30 6 78 9 105 2 28 7 82 11 120 3 39 8 84 10 100 2
17 7 71 10 120 4 50 8 106 11 125 2 19 6 64 9 100 3 36 7 85 10 110 7 73 17
181 20 230 2 25 4 45 5 45 1 0 6 50 14 155 2 30 7 82 10 115 3 33 8 88 11 122
3 34 7 84 10 110 11 126 16 191 20 223 1 19 6 71 9 115 4 44 9 98 12 120 2 22
7 67 9 100 3 33 8 89 11 125 7 77 11 123 18 210 3 36 8 88 11 115 9 91 15 159
20 225 2 36 5 65 6 65 0 0 2 14 3 30 9 108 17 210 21 238 6 53 17 168 21 237
7 94 12 155 14 155 1 0 3 18 5 40 4 63 15 186 20 230 4 41 11 121 20 235 3 36
8 83 10 105 3 22 7 74 10 115 3 41 7 90 10 110 6 56 17 170 20 230 2 30 5 55
6 55 1 0 2 18 4 40 1 22 5 72 9 110 15 159 25 263 31 335 2 25 6 79 10 120 3
41 8 98 10 125 2 28 6 68 9 90 5 43 17 169 21 223 3 42 11 50 19 18 3 -14 11
-38 18 -53 6 -15 12 -31 13 -35 2 -5 4 -10 5 -13 1 -3 3 -8 5 -12 1 -5 5 -17
9 -28 4 -11 12 -33 18 -50 5 -16 13 -39 18 -50 38 -100 119 -322 125 -345 5
-19 64 -178 75 -205 5 -11 19 -49 31 -85 12 -36 25 -69 30 -74 5 -6 9 -20 9
-32 0 -13 5 -26 10 -29 6 -3 10 -16 10 -29 0 -12 4 -26 9 -32 5 -5 20 -43 34
-84 26 -75 76 -213 95 -260 5 -14 11 -29 12 -35 1 -5 7 -21 12 -35 6 -14 11
-29 12 -35 3 -10 9 -27 25 -70 5 -11 13 -36 20 -55 7 -19 64 -176 127 -349 63
-172 114 -319 114 -326 0 -8 3 -15 8 -17 4 -1 15 -25 24 -53 22 -69 74 -214
89 -250 7 -16 13 -34 15 -40 1 -5 19 -55 39 -110 21 -55 39 -110 42 -123 3
-12 9 -25 14 -28 5 -3 9 -15 9 -28 0 -12 3 -26 7 -29 6 -7 30 -70 59 -157 8
-25 19 -54 24 -65 4 -11 18 -47 30 -80 12 -33 30 -82 41 -109 10 -27 19 -56
19 -65 0 -10 4 -21 8 -26 9 -10 11 -16 62 -160 18 -49 36 -99 41 -110 4 -11
31 -85 59 -165 28 -80 56 -154 61 -165 6 -12 12 -30 14 -40 2 -11 4 -21 5 -22
2 -2 3 -6 5 -10 1 -5 7 -21 14 -38 6 -16 15 -41 20 -55 5 -14 13 -34 17 -45 4
-11 8 -23 8 -27 1 -3 4 -10 9 -14 4 -4 7 -13 7 -20 0 -7 5 -25 12 -41 6 -15
12 -30 12 -33 1 -3 4 -10 8 -16 4 -6 9 -21 12 -35 6 -27 82 -235 97 -261 5
-10 9 -25 9 -33 0 -8 4 -23 9 -33 12 -21 26 -60 151 -407 55 -154 103 -287
107 -295 3 -8 7 -19 9 -25 3 -14 70 -193 85 -230 6 -16 13 -37 14 -45 4 -18
61 -173 80 -215 8 -16 11 -33 9 -37 -3 -4 0 -8 6 -8 7 0 10 -7 6 -15 -5 -15 7
-20 72 -28 17 -2 32 -1 32 3 0 3 25 3 55 0 30 -3 60 -3 65 0 6 4 33 3 61 0 27
-4 52 -3 55 2 3 5 9 6 14 3 8 -5 40 -6 170 -5 36 1 70 1 75 0 14 -2 311 -1
321 1 5 1 14 0 19 -1 32 -6 110 4 122 16 8 8 11 14 7 14 -3 0 0 7 7 17 8 9 12
17 9 17 -4 1 32 110 51 151 5 11 23 60 40 109 17 50 37 106 46 125 8 20 16 43
18 51 3 14 43 125 134 370 18 47 34 92 36 100 1 8 13 40 25 70 12 30 23 62 25
70 2 8 25 69 50 135 25 66 48 129 50 140 3 11 9 29 14 40 14 31 43 108 46 125
2 9 14 43 28 77 14 34 22 64 19 67 -3 3 0 6 6 6 7 0 11 3 10 8 -3 7 35 115 57
167 8 16 11 33 9 37 -3 4 0 8 5 8 6 0 11 7 11 16 0 8 41 127 91 262 50 136 92
254 94 262 2 8 10 31 18 50 24 60 30 75 33 85 4 19 55 160 64 180 6 11 39 101
74 200 35 99 71 198 79 220 9 22 32 87 52 145 20 58 41 114 46 125 4 11 27 72
49 135 44 123 125 349 140 390 5 14 15 39 21 55 7 17 13 32 14 35 1 3 4 12 8
20 3 8 13 35 21 60 8 25 24 70 36 100 11 30 32 89 47 130 14 41 30 86 36 100
5 14 11 30 13 35 1 6 12 37 25 70 13 33 24 63 25 68 1 4 3 9 4 12 1 3 3 8 5
13 1 4 6 18 12 32 6 14 29 77 51 140 22 63 52 147 67 185 15 39 28 75 29 80 2
6 8 23 14 38 7 16 12 34 12 41 0 6 4 16 9 21 6 6 12 21 14 35 3 14 14 46 26
73 11 26 18 47 14 47 -3 0 -1 6 4 13 12 15 86 223 83 233 -1 4 2 10 7 13 7 5
53 129 68 181 2 8 24 68 49 133 24 64 42 117 39 117 -3 0 1 10 9 23 8 12 18
35 22 51 14 59 21 13 41 -262 2 -29 6 -70 9 -90 4 -20 8 -71 11 -112 2 -41 6
-95 9 -120 3 -25 8 -74 10 -110 3 -36 8 -86 11 -113 4 -26 8 -75 11 -110 2
-34 6 -84 9 -112 2 -27 6 -79 9 -115 2 -36 7 -90 10 -120 16 -150 25 -244 31
-325 7 -92 16 -190 20 -235 11 -101 24 -246 30 -335 2 -27 4 -50 5 -50 1 0 3
-25 6 -55 8 -109 12 -156 18 -210 7 -72 17 -171 22 -240 2 -30 6 -75 8 -100 2
-25 7 -79 10 -120 4 -41 9 -93 12 -115 3 -22 7 -73 9 -115 2 -41 5 -75 6 -75
1 0 4 -27 13 -135 4 -47 9 -101 11 -120 6 -64 17 -185 20 -225 1 -22 5 -67 9
-100 7 -68 16 -169 21 -235 1 -25 6 -71 9 -102 3 -32 8 -82 11 -110 2 -29 7
-84 10 -123 4 -38 8 -90 11 -115 3 -25 7 -70 9 -100 5 -84 15 -201 21 -245 3
-22 7 -69 10 -105 2 -36 6 -81 8 -100 4 -34 13 -130 21 -240 3 -30 7 -73 9
-95 3 -22 8 -71 11 -110 3 -38 8 -95 11 -125 3 -30 7 -80 9 -110 2 -30 7 -82
10 -115 3 -33 8 -85 10 -115 11 -127 16 -165 23 -172 5 -5 53 -8 108 -8 149 0
187 -1 195 -6 4 -2 10 0 14 6 4 6 10 8 15 5 8 -5 40 -6 170 -5 36 1 70 1 75 0
38 -4 355 -4 355 0 0 3 28 4 62 3 35 -1 63 -2 63 -3 0 -1 28 -2 63 -3 34 -1
62 2 62 6 0 5 4 6 9 2 5 -3 63 -5 128 -5 173 1 216 -1 225 -6 4 -3 8 -2 8 3 0
4 21 8 47 8 l48 0 -3 70 c-2 39 -5 91 -5 117 -1 27 -4 48 -7 48 -3 0 -5 21 -6
48 -1 26 -4 79 -8 117 -15 160 -23 243 -31 340 -2 28 -7 75 -9 105 -3 30 -8
87 -11 125 -4 39 -8 84 -10 100 -1 17 -6 71 -10 120 -3 50 -9 106 -11 125 -3
19 -6 60 -8 90 -5 61 -13 162 -21 230 -2 25 -7 76 -10 114 -3 38 -8 73 -11 78
-3 4 1 8 8 8 9 0 9 3 2 8 -6 4 -12 36 -13 71 -1 36 -4 67 -6 71 -2 3 -6 46
-10 95 -4 50 -8 106 -10 125 -4 37 -13 141 -21 225 -11 128 -16 193 -19 230
-1 22 -4 40 -5 40 -1 0 -3 26 -5 57 -2 51 -6 89 -21 238 -2 25 -6 71 -8 103
-3 31 -8 62 -11 67 -3 6 -1 10 5 10 6 0 8 5 4 12 -4 7 -9 28 -10 48 -4 58 -14
170 -19 204 -3 17 -7 63 -10 101 -2 39 -7 97 -10 130 -8 82 -13 135 -20 235
-4 47 -9 101 -11 120 -2 19 -6 62 -9 95 -3 33 -8 83 -11 110 -3 28 -7 77 -9
110 -3 33 -7 85 -9 115 -3 30 -8 82 -11 115 -3 33 -7 80 -10 105 -5 42 -12
122 -20 245 -2 28 -4 50 -5 50 -2 0 -6 46 -14 160 -2 33 -5 60 -6 60 0 0 -3
23 -5 50 -10 123 -16 193 -19 225 -4 36 -13 133 -21 250 -3 36 -7 81 -10 100
-2 19 -7 69 -11 110 -3 41 -7 91 -9 110 -2 19 -7 75 -10 125 -7 86 -12 140
-15 140 -1 0 -3 30 -5 66 -2 36 -6 93 -9 125 -14 135 -17 162 -22 224 -2 36
-7 83 -9 105 -2 22 -6 74 -10 115 -3 41 -7 93 -10 115 -2 22 -6 74 -10 115 -3
41 -7 89 -10 105 -2 17 -7 68 -10 114 -3 46 -8 102 -10 125 -7 74 -20 220 -29
326 -10 128 -18 205 -22 209 -3 3 -2330 5 -2529 2 l-50 -1 -24 -67 c-13 -38
-29 -79 -34 -93 -6 -14 -11 -29 -13 -35 -1 -5 -18 -53 -37 -105 -98 -267 -171
-470 -187 -515 -40 -114 -101 -281 -109 -300 -5 -11 -18 -45 -28 -75 -10 -30
-22 -58 -28 -62 -5 -4 -7 -8 -3 -8 4 0 -4 -30 -18 -67 -14 -38 -35 -97 -47
-133 -12 -36 -26 -68 -32 -72 -5 -4 -7 -8 -3 -8 4 0 -1 -20 -12 -45 -11 -25
-19 -48 -19 -50 0 -5 -33 -100 -48 -135 -3 -8 -7 -19 -9 -25 -11 -44 -61 -171
-69 -177 -5 -4 -7 -8 -3 -8 4 0 -1 -22 -12 -49 -10 -27 -16 -52 -13 -55 4 -3
1 -6 -5 -6 -7 0 -12 -5 -12 -12 0 -11 -38 -120 -80 -233 -11 -27 -21 -57 -22
-65 -2 -8 -5 -17 -8 -20 -3 -3 -16 -36 -29 -75 -13 -38 -29 -83 -36 -100 -7
-16 -21 -55 -31 -85 -9 -30 -24 -71 -32 -90 -9 -19 -16 -39 -18 -45 -2 -13
-133 -375 -144 -400 -5 -11 -34 -92 -66 -180 -31 -88 -61 -166 -66 -172 -6 -7
-8 -13 -4 -13 5 0 -20 -76 -47 -140 -6 -14 -12 -29 -12 -35 -1 -5 -8 -23 -14
-40 -7 -16 -28 -73 -47 -126 -18 -53 -54 -152 -80 -220 -25 -68 -47 -128 -48
-134 -2 -5 -7 -21 -13 -35 -5 -14 -27 -74 -48 -135 -21 -60 -46 -128 -55 -150
-15 -35 -19 -37 -25 -20 -47 131 -59 166 -72 200 -9 22 -22 54 -29 70 -7 17
-16 44 -20 60 -4 17 -12 39 -18 50 -5 11 -11 22 -11 25 0 3 -9 30 -20 60 -11
30 -20 57 -20 60 -2 7 -15 41 -25 65 -10 24 -44 118 -46 125 0 3 -3 12 -7 20
-3 8 -15 42 -27 75 -59 159 -82 224 -96 265 -8 25 -19 54 -24 65 -9 23 -22 55
-26 70 -2 6 -24 66 -49 135 -26 69 -51 136 -55 150 -5 14 -22 63 -40 110 -50
135 -111 304 -114 315 -2 6 -8 21 -14 35 -11 26 -165 450 -209 575 -13 39 -28
79 -33 90 -5 11 -18 47 -30 80 -11 33 -25 69 -30 80 -5 11 -16 40 -24 65 -8
25 -27 77 -41 115 -14 39 -27 75 -29 80 -2 6 -6 19 -10 30 -5 11 -17 45 -28
75 -11 30 -24 64 -28 75 -5 11 -16 40 -24 65 -8 25 -22 62 -30 83 -9 20 -13
37 -10 37 4 0 2 6 -3 13 -6 6 -16 30 -23 52 -7 22 -15 45 -19 50 -3 6 -6 15
-7 20 -1 6 -32 91 -69 190 -37 99 -68 185 -69 190 -2 6 -8 24 -15 40 -7 17
-19 50 -27 75 -8 25 -19 54 -24 65 -9 23 -11 27 -55 150 -18 50 -47 128 -64
175 -18 47 -34 90 -35 95 -4 13 -15 43 -27 73 -5 12 -14 22 -21 23 -61 2
-2520 3 -2540 1z"/>
</g>
</svg>
