<svg width="30" height="30" viewBox="0 0 30 30" fill="none" xmlns="http://www.w3.org/2000/svg">
<path d="M15.0014 0C10.9276 0 10.4164 0.017816 8.81631 0.0906322C7.21948 0.163753 6.12945 0.416566 5.17566 0.787503C4.1891 1.17063 3.35221 1.68313 2.51846 2.5172C1.68408 3.35095 1.17158 4.18782 0.787199 5.17404C0.415316 6.1281 0.162188 7.21848 0.0903115 8.81466C0.0187498 10.4147 0 10.9263 0 15C0 19.0737 0.0181314 19.5835 0.0906263 21.1835C0.164064 22.7804 0.416877 23.8703 0.787504 24.8241C1.17095 25.8107 1.68345 26.6475 2.51753 27.4813C3.35097 28.3156 4.18786 28.8294 5.17379 29.2125C6.12818 29.5835 7.21849 29.8363 8.81513 29.9094C10.4151 29.9822 10.926 30 14.9995 30C19.0736 30 19.5833 29.9822 21.1833 29.9094C22.7802 29.8363 23.8715 29.5835 24.8259 29.2125C25.8121 28.8294 26.6477 28.3156 27.4812 27.4813C28.3156 26.6475 28.8281 25.8107 29.2125 24.8244C29.5812 23.8703 29.8343 22.7801 29.9093 21.1838C29.9812 19.5838 30 19.0737 30 15C30 10.9263 29.9812 10.4151 29.9093 8.81505C29.8343 7.21818 29.5812 6.1281 29.2125 5.17434C28.8281 4.18782 28.3156 3.35095 27.4812 2.5172C26.6468 1.68282 25.8125 1.17032 24.8249 0.787503C23.8686 0.416566 22.778 0.163753 21.1811 0.0906322C19.5811 0.017816 19.0718 0 14.9967 0H15.0014ZM13.6557 2.70314C14.0552 2.70251 14.5008 2.70314 15.0014 2.70314C19.0064 2.70314 19.4811 2.71751 21.0627 2.78939C22.5252 2.85626 23.319 3.10063 23.8477 3.30595C24.5477 3.57782 25.0468 3.90283 25.5714 4.42781C26.0965 4.95287 26.4215 5.45278 26.694 6.15285C26.8993 6.68095 27.144 7.47472 27.2106 8.93723C27.2824 10.5185 27.298 10.9934 27.298 14.9966C27.298 18.9997 27.2824 19.4748 27.2106 21.056C27.1437 22.5185 26.8993 23.3122 26.694 23.8404C26.4221 24.5404 26.0965 25.0388 25.5714 25.5635C25.0465 26.0885 24.548 26.4135 23.8477 26.6854C23.3196 26.8916 22.5252 27.1354 21.0627 27.2023C19.4814 27.2741 19.0064 27.2898 15.0014 27.2898C10.9961 27.2898 10.5214 27.2741 8.94006 27.2023C7.47759 27.1347 6.68379 26.8903 6.15479 26.6851C5.45469 26.4132 4.95476 26.0881 4.42969 25.5632C3.90472 25.0382 3.57972 24.5394 3.30722 23.8391C3.10191 23.311 2.85722 22.5172 2.79065 21.0547C2.71878 19.4735 2.7044 18.9985 2.7044 14.9928C2.7044 10.9872 2.71878 10.5147 2.79065 8.9335C2.85753 7.47099 3.10191 6.67722 3.30722 6.14843C3.5791 5.44846 3.90472 4.94845 4.42969 4.42349C4.95476 3.89845 5.45469 3.57344 6.15479 3.30095C6.6835 3.0947 7.47759 2.85095 8.94006 2.78376C10.3239 2.72126 10.8601 2.70251 13.6557 2.69938V2.70314ZM23.0083 5.19379C22.0146 5.19379 21.2083 5.99905 21.2083 6.99317C21.2083 7.98691 22.0146 8.79315 23.0083 8.79315C24.0021 8.79315 24.8084 7.98691 24.8084 6.99317C24.8084 5.99934 24.0021 5.1931 23.0083 5.1931V5.19379ZM15.0014 7.29685C10.7473 7.29685 7.29815 10.7459 7.29815 15C7.29815 19.2541 10.7473 22.7016 15.0014 22.7016C19.2555 22.7016 22.7034 19.2541 22.7034 15C22.7034 10.7459 19.2551 7.29685 15.0011 7.29685H15.0014ZM15.0014 10C17.7627 10 20.0014 12.2384 20.0014 15C20.0014 17.7613 17.7627 20 15.0014 20C12.2398 20 10.0013 17.7613 10.0013 15C10.0013 12.2384 12.2398 10 15.0014 10Z" fill="white"/>
</svg>
