<svg height="24" viewBox="0 0 6.3499999 6.3500002" width="24" xmlns="http://www.w3.org/2000/svg">
<path d="M 1.0583333,290.64999 C 0.47201668,290.64999 1.4999998e-8,291.12201 1.4999998e-8,291.70832 v 4.23334 c 0,0.58631 0.472016665000002,1.05833 1.058333285000002,1.05833 h 4.2333334 c 0.5863167,0 1.0583333,-0.47202 1.0583333,-1.05833 v -4.23334 c 0,-0.58631 -0.4720166,-1.05833 -1.0583333,-1.05833 z m 3.9444613,1.51257 c 0.1385597,0.0112 0.1791176,0.14301 0.1457272,0.29766 l -0.6185667,2.86494 c -0.040235,0.18632 -0.180176,0.20932 -0.3488161,0.0863 l -0.8738473,-0.63769 -0.4800732,0.46354 c -0.075311,0.0726 -0.2152518,0.0937 -0.2568337,-0.0336 l -0.3601853,-1.10433 -0.8516249,-0.26872 c -0.3283559,-0.10372 -0.093163,-0.25083 0.018097,-0.29403 l 3.4540534,-1.34101 c 0.068837,-0.0267 0.125902,-0.0363 0.1720824,-0.0326 z m -0.6128808,0.59635 c -0.020982,0.004 -0.044556,0.0127 -0.066146,0.0263 l -1.9487198,1.23507 c -0.011642,0.007 -0.02458,0.006 -0.012409,0.0434 l 0.3152246,0.96738 0.06408,-0.65733 c 0.00132,-0.0127 0.00185,-0.021 0.016007,-0.0336 l 1.6453777,-1.47691 c 0.0909,-0.0816 0.049443,-0.11553 -0.013441,-0.10438 z" transform="translate(0,-290.64999)" fill='white'/></svg>